HIERARCHY
ROOT Hips
{
    OFFSET 0.0 0.0 0.0
    CHANNELS 6 Xposition Yposition Zposition Zrotation Xrotation Yrotation
    JOINT LeftHipJoint
    {
        OFFSET 0.1 0.0 0.0
        CHANNELS 3 Zrotation Xrotation Yrotation
        JOINT LeftUpLeg
        {
            OFFSET 125.44294719390592 0.0 0.0
            CHANNELS 3 Zrotation Xrotation Yrotation
            JOINT LeftLeg
            {
                OFFSET 0.0 0.0 -416.88568286723705
                CHANNELS 3 Zrotation Xrotation Yrotation
                JOINT LeftFoot
                {
                    OFFSET 0.0 0.0 -405.1481319459299
                    CHANNELS 3 Zrotation Xrotation Yrotation
                    End Site
                    {
                        OFFSET 0.0 -0.1 0.0
                    }
                }
            }
        }
    }
    JOINT LowerBack
    {
        OFFSET 0.0 0.0 0.1
        CHANNELS 3 Zrotation Xrotation Yrotation
        JOINT Spine
        {
            OFFSET 0.0 0.0 217.9781841738893
            CHANNELS 3 Zrotation Xrotation Yrotation
            JOINT Spine1
            {
                OFFSET 0.0 0.0 249.66920277985753
                CHANNELS 3 Zrotation Xrotation Yrotation
                JOINT LeftShoulder
                {
                    OFFSET 0.1 0.0 0.0
                    CHANNELS 3 Zrotation Xrotation Yrotation
                    JOINT LeftArm
                    {
                        OFFSET 146.0978339391769 0.0 0.0
                        CHANNELS 3 Zrotation Xrotation Yrotation
                        JOINT LeftForeArm
                        {
                            OFFSET 270.5747938658719 0.0 0.0
                            CHANNELS 3 Zrotation Xrotation Yrotation
                            JOINT LeftHand
                            {
                                OFFSET 238.3165948195429 0.0 0.0
                                CHANNELS 3 Zrotation Xrotation Yrotation
                                End Site
                                {
                                    OFFSET 0.1 0.0 0.0
                                }
                            }
                        }
                    }
                }
                JOINT Neck
                {
                    OFFSET 0.0 0.0 0.1
                    CHANNELS 3 Zrotation Xrotation Yrotation
                    JOINT Neck1
                    {
                        OFFSET 0.0 0.0 107.42981385663943
                        CHANNELS 3 Zrotation Xrotation Yrotation
                        End Site
                        {
                            OFFSET 0.0 0.0 103.22859909639239
                        }
                    }
                }
                JOINT RightShoulder
                {
                    OFFSET -0.1 0.0 0.0
                    CHANNELS 3 Zrotation Xrotation Yrotation
                    JOINT RightArm
                    {
                        OFFSET -146.0978339391769 0.0 0.0
                        CHANNELS 3 Zrotation Xrotation Yrotation
                        JOINT RightForeArm
                        {
                            OFFSET -270.5747938658719 0.0 0.0
                            CHANNELS 3 Zrotation Xrotation Yrotation
                            JOINT RightHand
                            {
                                OFFSET -238.3165948195429 0.0 0.0
                                CHANNELS 3 Zrotation Xrotation Yrotation
                                End Site
                                {
                                    OFFSET -0.1 0.0 0.0
                                }
                            }
                        }
                    }
                }
            }
        }
    }
    JOINT RightHipJoint
    {
        OFFSET -0.1 0.0 0.0
        CHANNELS 3 Zrotation Xrotation Yrotation
        JOINT RightUpLeg
        {
            OFFSET -125.44294719390592 0.0 0.0
            CHANNELS 3 Zrotation Xrotation Yrotation
            JOINT RightLeg
            {
                OFFSET 0.0 0.0 -416.88568286723705
                CHANNELS 3 Zrotation Xrotation Yrotation
                JOINT RightFoot
                {
                    OFFSET 0.0 0.0 -405.1481319459299
                    CHANNELS 3 Zrotation Xrotation Yrotation
                    End Site
                    {
                        OFFSET 0.0 -0.1 0.0
                    }
                }
            }
        }
    }
}
MOTION
Frames: 5
Frame Time: 0.03333333333333333
0.0 0.0 829.6574285994868 26.86422771893013 -4.6841327491342 1.991651157325385 0.0 0.0 0.0 0.28608248148943705 -7.968594718747885 2.7806892880047447 0.33280209514051334 24.56383143094622 -1.826023266092466 0.0 0.0 -3.975693351829396e-16 0.0 0.0 0.0 -0.06694025782554597 1.8875031821798047 5.893824427104876 5.777469981108506 6.53875333829436e-16 -2.8195212342759695e-15 -2.758691436281349e-33 7.951386703658792e-16 3.975693351829396e-16 -83.86110803858466 57.585483469072244 102.94910102108744 -91.32177169672747 2.326664338959637e-15 -6.720585797585727e-15 -3.1805546814635168e-15 5.069095514166979e-32 -1.8263341334966286e-15 -2.758691436281349e-33 7.951386703658792e-16 3.975693351829396e-16 -16.047176178681983 -1.88393311815303 -5.501219583992007 -2.758691436281349e-33 7.951386703658792e-16 3.975693351829396e-16 8.592703559538055 -56.28777878178508 -32.132184618603354 133.0808808606786 -3.3029398743146767e-15 -8.367676669237292e-15 0.0 0.0 0.0 0.0 0.0 0.0 0.13769507568004988 -3.922163616681803 0.7477343645854823 -0.5071555248829688 21.533450375504852 -2.6703333929379656 0.0 0.0 -3.975693351829396e-16
0.0 0.0 829.6574285994868 26.86388054270774 -4.61003459771102 1.937292695032614 0.0 0.0 0.0 0.29356534942922724 -8.04354867317066 2.8307565683079057 0.33665980802040724 24.369574161741326 -1.8313204559796226 3.1805546814635164e-15 -1.5902773407317582e-15 1.1927080055488186e-15 0.0 0.0 0.0 -0.07085657860043178 1.9646761860073096 6.014324818267345 5.813777789985816 7.235487439295189e-16 -1.4300260765707526e-15 0.0 0.0 0.0 -83.6097904114115 57.59649840596023 102.58704985130586 -91.35007348536942 -1.3493014186509298e-14 -1.5897683695967685e-16 0.0 0.0 1.0311954631307496e-15 0.0 0.0 0.0 -16.066197697574466 -1.986411764642545 -5.657079468994234 0.0 0.0 0.0 8.90041963717536 -56.04816450873269 -31.812436356319935 132.89128662303597 7.470712840305139e-16 1.4204240427849949e-14 0.0 0.0 0.0 0.0 0.0 0.0 0.14221482849351158 -3.9798715211250135 0.8103291649343298 -0.4900242777421916 21.29460629671329 -2.6494945089735324 0.0 0.0 0.0
0.0 0.0 829.6574285994868 26.919078870823995 -4.57039151662413 1.9046892080927151 0.0 0.0 -1.987846675914698e-16 0.2952790166116889 -8.062132207027446 2.9591604605037873 0.3915519375684252 24.366491509467373 -1.9903373862482308 0.0 0.0 7.951386703658792e-16 0.0 0.0 -1.987846675914698e-16 -0.07481666121357453 2.067400039390073 6.067874544505278 5.8191316216040665 8.445648853755584e-16 9.52281083104178e-16 0.0 0.0 1.987846675914698e-16 -83.36662929461063 57.61087469061262 102.27615729266932 -91.44351793584022 6.491470403957998e-15 2.0324309967982053e-14 -3.180554681463516e-15 -1.3431378930394818e-31 4.839164251679842e-15 0.0 0.0 1.987846675914698e-16 -16.059890149109677 -2.207786881061449 -5.77918595618933 0.0 0.0 1.987846675914698e-16 9.210334325890091 -55.76987940981371 -31.43602804723127 132.57646712281644 6.532149636138434e-15 1.6764269138499306e-14 0.0 0.0 0.0 0.0 0.0 -1.987846675914698e-16 0.144789038039239 -4.038513928753444 0.8718224744564014 -0.4679095699986319 21.256316781712293 -2.6908828623392536 -5.517382872562698e-33 -1.5902773407317584e-15 -3.975693351829396e-16
0.0 0.0 829.6574285994868 26.96971243810494 -4.459131434081395 1.8819981416281395 0.0 0.0 0.0 0.3027045917392745 -8.24688503408222 2.9721240629657286 0.4018423304364149 24.719436949543063 -1.980198873504422 0.0 0.0 -7.951386703658792e-16 0.0 0.0 0.0 -0.07736011793501513 2.1339154801422753 6.110579619544066 5.839015874942136 -3.970533194176941e-16 2.024939053885816e-17 0.0 0.0 1.987846675914698e-16 -83.09890469927318 57.636379472981176 101.90516045351156 -91.50566226575094 -1.337458784810418e-14 -9.172487667999929e-15 -3.1805546814635168e-15 2.3517844494298503e-31 -8.4731964560864e-15 0.0 0.0 1.987846675914698e-16 -16.03192733667573 -2.6373955653613987 -5.846805373749692 0.0 0.0 1.987846675914698e-16 9.414703543838566 -55.50528610035285 -31.159752698738895 132.40606586615263 -8.386982056011306e-15 3.2536067135381203e-15 0.0 0.0 0.0 0.0 0.0 0.0 0.15068934860284056 -4.195796765741754 0.8771917522551572 -0.4699352820955536 21.361831676485235 -2.7333167121786817 0.0 0.0 -3.975693351829396e-16
0.0 0.0 829.6574285994868 26.983726749598798 -4.297035580334642 1.8964420068811085 -3.1805546814635168e-15 7.951386703658792e-16 2.2069531490250793e-32 0.29597299372000585 -8.321112670351734 2.996704352410464 0.4458603941957689 24.850480087767572 -2.098283451347341 0.0 0.0 0.0 -3.1805546814635168e-15 7.951386703658792e-16 2.2069531490250793e-32 -0.07245454309455215 2.063242630699697 6.048699010157065 5.817343381583002 -7.06100367148712e-17 -1.389699997164219e-15 2.758691436281349e-33 3.975693351829396e-16 -7.951386703658792e-16 -82.60894343245769 57.5646455954393 101.48785939791718 -91.45383288538471 -2.334407939864677e-15 6.71789996793598e-15 0.0 0.0 -2.795409388005044e-15 2.758691436281349e-33 3.975693351829396e-16 -7.951386703658792e-16 -16.07833863815131 -2.909372358882229 -5.856720484406268 2.758691436281349e-33 3.975693351829396e-16 -7.951386703658792e-16 10.214440835618317 -55.03924674712447 -30.400615426459954 132.26211782373102 0.0 0.0 0.0 0.0 0.0 -3.1805546814635168e-15 7.951386703658792e-16 2.2069531490250793e-32 0.15494578953668253 -4.452405620962794 0.9112268137635832 -0.4368298838166588 21.605059651464355 -2.7730136696091896 0.0 0.0 -3.975693351829396e-16
